<svg width="16" height="16" viewBox="0 0 28 26" stroke="currentColor" fill="none" xmlns="http://www.w3.org/2000/svg">
<path d="M18.8623 1.06348C22.318 0.0257257 25.2434 1.72857 26.3477 3.78906L26.4492 3.99023C27.892 7.03142 27.4157 10.5129 24.7568 14.4473L24.4922 14.8291L24.4912 14.8311C22.3467 17.8866 19.3129 20.954 14.9619 24.5068L14.0742 25.2236L14.0732 25.2246C14.051 25.2425 14.0261 25.25 14.0039 25.25C13.9929 25.25 13.9813 25.2482 13.9697 25.2441L13.9355 25.2246L13.9346 25.2236L13.0459 24.5049C8.6904 20.9433 5.66112 17.8535 3.51465 14.8281H3.51562C0.707766 10.8648 0.0983793 7.35541 1.41699 4.28613L1.55078 3.99023C2.56631 1.84511 5.5584 0.0081441 9.13867 1.06348V1.06445C10.8492 1.57299 12.347 2.66482 13.3828 4.16699L14 5.0625L14.6172 4.16699C15.5882 2.75876 16.9644 1.71053 18.542 1.16602L18.8604 1.06445L18.8623 1.06348Z" stroke-width="1.5"/>
</svg>
